<svg width="28" height="28" viewBox="0 0 28 28" fill="none" xmlns="http://www.w3.org/2000/svg">
<g id="IMAGE">
<g id="Lifetime-Warranty-Icon">
<path id="Combined-Shape" d="M21.3804 0C21.6154 0 21.8034 0.14 21.8504 0.373333C22.2265 2.66 24.0128 4.43333 26.3163 4.80667C26.5043 4.80667 26.6923 5.04 26.8334 5.27333V9.56667C26.8334 13.58 25.5641 17.5 23.2607 20.8133C21.0043 24.0333 17.8547 26.5067 14.1881 27.9533C14.094 28 14.047 28 14 28C13.906 28 13.859 27.9533 13.812 27.9533C10.1453 26.5067 6.99575 24.0333 4.73934 20.8133C2.38891 17.5 1.16669 13.6267 1.16669 9.56667V5.27333C1.16669 5.04 1.30771 4.85333 1.54276 4.80667C3.79917 4.48 5.6325 2.61333 6.00857 0.373333C6.05558 0.186667 6.24361 0 6.47865 0H21.3804ZM20.9573 0.886667H6.85472C6.33763 3.26667 4.45729 5.08667 2.05985 5.64667V9.52C2.05985 13.3933 3.23506 17.08 5.44446 20.2533C7.55985 23.2867 10.4744 25.5733 13.906 26.9733C17.3376 25.62 20.2522 23.2867 22.3675 20.2533C24.5769 17.08 25.7522 13.3933 25.7522 9.52V5.64667C23.3547 5.08667 21.4744 3.26667 20.9573 0.886667ZM18.0428 9.75333C18.2308 9.56667 18.5598 9.61333 18.6539 9.84667C18.8419 10.0333 18.7949 10.36 18.6069 10.5L12.1667 15.68C12.1197 15.7267 11.9787 15.7733 11.8846 15.7733H11.8376C11.6966 15.7733 11.6026 15.68 11.5086 15.5867L9.06412 12.2267C8.9231 11.9933 8.97011 11.7133 9.15814 11.5733C9.39318 11.4333 9.67523 11.48 9.81626 11.6667L11.9787 14.6067L18.0428 9.75333Z" fill="white"/>
</g>
</g>
</svg>
